<?xml version="1.0" encoding="UTF-8" standalone="no"?>
<!DOCTYPE svg PUBLIC "-//W3C//DTD SVG 1.1//EN"
 "http://www.w3.org/Graphics/SVG/1.1/DTD/svg11.dtd">
<!-- Generated by graphviz version 2.47.0 (20210316.0004)
 -->
<!-- Title: dbml Pages: 1 -->
<svg width="848pt" height="3041pt"
 viewBox="0.00 0.00 848.04 3041.22" xmlns="http://www.w3.org/2000/svg" xmlns:xlink="http://www.w3.org/1999/xlink">
<g id="graph0" class="graph" transform="scale(1 1) rotate(0) translate(4 3037.22)">
<title>dbml</title>
<!-- profiles -->
<g id="profiles" class="node">
<title>profiles</title>
<ellipse fill="none" stroke="black" stroke-width="0" cx="420.02" cy="-172.53" rx="291.16" ry="172.57"/>
<polygon fill="#1d71b8" stroke="transparent" points="216.02,-232.53 216.02,-292.53 624.02,-292.53 624.02,-232.53 216.02,-232.53"/>
<polygon fill="none" stroke="#29235c" points="216.02,-232.53 216.02,-292.53 624.02,-292.53 624.02,-232.53 216.02,-232.53"/>
<text text-anchor="start" x="306.22" y="-253.73" font-family="Helvetica,sans-Serif" font-weight="bold" font-size="32.00" fill="#ffffff"> &#160;&#160;&#160;&#160;&#160;&#160;profiles &#160;&#160;&#160;&#160;&#160;&#160;</text>
<polygon fill="#e7e2dd" stroke="transparent" points="216.02,-172.53 216.02,-232.53 624.02,-232.53 624.02,-172.53 216.02,-172.53"/>
<polygon fill="none" stroke="#29235c" points="216.02,-172.53 216.02,-232.53 624.02,-232.53 624.02,-172.53 216.02,-172.53"/>
<text text-anchor="start" x="227.02" y="-193.73" font-family="Helvetica,sans-Serif" font-weight="bold" font-size="32.00" fill="#29235c">user_id</text>
<text text-anchor="start" x="331.93" y="-193.73" font-family="Helvetica,sans-Serif" font-size="32.00" fill="#29235c"> &#160;&#160;&#160;</text>
<text text-anchor="start" x="476.13" y="-193.73" font-family="Helvetica,sans-Serif" font-style="italic" font-size="32.00" fill="#29235c">integer</text>
<text text-anchor="start" x="573.93" y="-193.73" font-family="Helvetica,sans-Serif" font-size="32.00" fill="#29235c"> </text>
<text text-anchor="start" x="582.82" y="-193.73" font-family="Helvetica,sans-Serif" font-weight="bold" font-size="32.00" fill="#29235c">(!)</text>
<polygon fill="#e7e2dd" stroke="transparent" points="216.02,-112.53 216.02,-172.53 624.02,-172.53 624.02,-112.53 216.02,-112.53"/>
<polygon fill="none" stroke="#29235c" points="216.02,-112.53 216.02,-172.53 624.02,-172.53 624.02,-112.53 216.02,-112.53"/>
<text text-anchor="start" x="226.56" y="-132.73" font-family="Helvetica,sans-Serif" font-size="32.00" fill="#29235c">first_name &#160;&#160;&#160;</text>
<text text-anchor="start" x="410.7" y="-133.73" font-family="Helvetica,sans-Serif" font-style="italic" font-size="32.00" fill="#29235c">varchar(32)</text>
<text text-anchor="start" x="574.25" y="-133.73" font-family="Helvetica,sans-Serif" font-size="32.00" fill="#29235c"> </text>
<text text-anchor="start" x="583.15" y="-133.73" font-family="Helvetica,sans-Serif" font-weight="bold" font-size="32.00" fill="#29235c">(!)</text>
<polygon fill="#e7e2dd" stroke="transparent" points="216.02,-52.53 216.02,-112.53 624.02,-112.53 624.02,-52.53 216.02,-52.53"/>
<polygon fill="none" stroke="#29235c" points="216.02,-52.53 216.02,-112.53 624.02,-112.53 624.02,-52.53 216.02,-52.53"/>
<text text-anchor="start" x="227.02" y="-72.73" font-family="Helvetica,sans-Serif" font-size="32.00" fill="#29235c">last_name &#160;&#160;&#160;</text>
<text text-anchor="start" x="410.7" y="-73.73" font-family="Helvetica,sans-Serif" font-style="italic" font-size="32.00" fill="#29235c">varchar(32)</text>
<text text-anchor="start" x="574.25" y="-73.73" font-family="Helvetica,sans-Serif" font-size="32.00" fill="#29235c"> </text>
<text text-anchor="start" x="583.15" y="-73.73" font-family="Helvetica,sans-Serif" font-weight="bold" font-size="32.00" fill="#29235c">(!)</text>
<polygon fill="none" stroke="#29235c" stroke-width="2" points="215.02,-51.53 215.02,-293.53 625.02,-293.53 625.02,-51.53 215.02,-51.53"/>
</g>
<!-- sessions -->
<g id="sessions" class="node">
<title>sessions</title>
<ellipse fill="none" stroke="black" stroke-width="0" cx="420.02" cy="-535.53" rx="420.04" ry="172.57"/>
<polygon fill="#1d71b8" stroke="transparent" points="125.02,-595.53 125.02,-655.53 715.02,-655.53 715.02,-595.53 125.02,-595.53"/>
<polygon fill="none" stroke="#29235c" points="125.02,-595.53 125.02,-655.53 715.02,-655.53 715.02,-595.53 125.02,-595.53"/>
<text text-anchor="start" x="295.54" y="-616.73" font-family="Helvetica,sans-Serif" font-weight="bold" font-size="32.00" fill="#ffffff"> &#160;&#160;&#160;&#160;&#160;&#160;sessions &#160;&#160;&#160;&#160;&#160;&#160;</text>
<polygon fill="#e7e2dd" stroke="transparent" points="125.02,-535.53 125.02,-595.53 715.02,-595.53 715.02,-535.53 125.02,-535.53"/>
<polygon fill="none" stroke="#29235c" points="125.02,-535.53 125.02,-595.53 715.02,-595.53 715.02,-535.53 125.02,-535.53"/>
<text text-anchor="start" x="136.02" y="-556.73" font-family="Helvetica,sans-Serif" font-weight="bold" font-size="32.00" fill="#29235c">id</text>
<text text-anchor="start" x="160.91" y="-556.73" font-family="Helvetica,sans-Serif" font-size="32.00" fill="#29235c"> &#160;&#160;&#160;</text>
<text text-anchor="start" x="604.46" y="-556.73" font-family="Helvetica,sans-Serif" font-style="italic" font-size="32.00" fill="#29235c">uuid</text>
<text text-anchor="start" x="664.93" y="-556.73" font-family="Helvetica,sans-Serif" font-size="32.00" fill="#29235c"> </text>
<text text-anchor="start" x="673.82" y="-556.73" font-family="Helvetica,sans-Serif" font-weight="bold" font-size="32.00" fill="#29235c">(!)</text>
<polygon fill="#e7e2dd" stroke="transparent" points="125.02,-475.53 125.02,-535.53 715.02,-535.53 715.02,-475.53 125.02,-475.53"/>
<polygon fill="none" stroke="#29235c" points="125.02,-475.53 125.02,-535.53 715.02,-535.53 715.02,-475.53 125.02,-475.53"/>
<text text-anchor="start" x="136.02" y="-495.73" font-family="Helvetica,sans-Serif" font-size="32.00" fill="#29235c">user_id &#160;&#160;&#160;</text>
<text text-anchor="start" x="606.22" y="-496.73" font-family="Helvetica,sans-Serif" font-style="italic" font-size="32.00" fill="#29235c">integer</text>
<polygon fill="#e7e2dd" stroke="transparent" points="125.02,-415.53 125.02,-475.53 715.02,-475.53 715.02,-415.53 125.02,-415.53"/>
<polygon fill="none" stroke="#29235c" points="125.02,-415.53 125.02,-475.53 715.02,-475.53 715.02,-415.53 125.02,-415.53"/>
<text text-anchor="start" x="135.56" y="-435.73" font-family="Helvetica,sans-Serif" font-size="32.00" fill="#29235c">expiresAt &#160;&#160;&#160;</text>
<text text-anchor="start" x="304.02" y="-436.73" font-family="Helvetica,sans-Serif" font-style="italic" font-size="32.00" fill="#29235c">timestamp with time zone</text>
<text text-anchor="start" x="664.94" y="-436.73" font-family="Helvetica,sans-Serif" font-size="32.00" fill="#29235c"> </text>
<text text-anchor="start" x="673.83" y="-436.73" font-family="Helvetica,sans-Serif" font-weight="bold" font-size="32.00" fill="#29235c">(!)</text>
<polygon fill="none" stroke="#29235c" stroke-width="2" points="124.02,-414.53 124.02,-656.53 716.02,-656.53 716.02,-414.53 124.02,-414.53"/>
</g>
<!-- users -->
<g id="users" class="node">
<title>users</title>
<ellipse fill="none" stroke="black" stroke-width="0" cx="420.02" cy="-898.53" rx="295.64" ry="172.57"/>
<polygon fill="#1d71b8" stroke="transparent" points="213.02,-958.53 213.02,-1018.53 627.02,-1018.53 627.02,-958.53 213.02,-958.53"/>
<polygon fill="none" stroke="#29235c" points="213.02,-958.53 213.02,-1018.53 627.02,-1018.53 627.02,-958.53 213.02,-958.53"/>
<text text-anchor="start" x="318.66" y="-979.73" font-family="Helvetica,sans-Serif" font-weight="bold" font-size="32.00" fill="#ffffff"> &#160;&#160;&#160;&#160;&#160;&#160;users &#160;&#160;&#160;&#160;&#160;&#160;</text>
<polygon fill="#e7e2dd" stroke="transparent" points="213.02,-898.53 213.02,-958.53 627.02,-958.53 627.02,-898.53 213.02,-898.53"/>
<polygon fill="none" stroke="#29235c" points="213.02,-898.53 213.02,-958.53 627.02,-958.53 627.02,-898.53 213.02,-898.53"/>
<text text-anchor="start" x="224.02" y="-919.73" font-family="Helvetica,sans-Serif" font-weight="bold" font-size="32.00" fill="#29235c">id</text>
<text text-anchor="start" x="248.91" y="-919.73" font-family="Helvetica,sans-Serif" font-size="32.00" fill="#29235c"> &#160;&#160;&#160;</text>
<text text-anchor="start" x="500.5" y="-919.73" font-family="Helvetica,sans-Serif" font-style="italic" font-size="32.00" fill="#29235c">serial</text>
<text text-anchor="start" x="576.93" y="-919.73" font-family="Helvetica,sans-Serif" font-size="32.00" fill="#29235c"> </text>
<text text-anchor="start" x="585.82" y="-919.73" font-family="Helvetica,sans-Serif" font-weight="bold" font-size="32.00" fill="#29235c">(!)</text>
<polygon fill="#e7e2dd" stroke="transparent" points="213.02,-838.53 213.02,-898.53 627.02,-898.53 627.02,-838.53 213.02,-838.53"/>
<polygon fill="none" stroke="#29235c" points="213.02,-838.53 213.02,-898.53 627.02,-898.53 627.02,-838.53 213.02,-838.53"/>
<text text-anchor="start" x="224.02" y="-858.73" font-family="Helvetica,sans-Serif" font-size="32.00" fill="#29235c">email &#160;&#160;&#160;</text>
<text text-anchor="start" x="395.59" y="-859.73" font-family="Helvetica,sans-Serif" font-style="italic" font-size="32.00" fill="#29235c">varchar(256)</text>
<text text-anchor="start" x="576.93" y="-859.73" font-family="Helvetica,sans-Serif" font-size="32.00" fill="#29235c"> </text>
<text text-anchor="start" x="585.82" y="-859.73" font-family="Helvetica,sans-Serif" font-weight="bold" font-size="32.00" fill="#29235c">(!)</text>
<polygon fill="#e7e2dd" stroke="transparent" points="213.02,-778.53 213.02,-838.53 627.02,-838.53 627.02,-778.53 213.02,-778.53"/>
<polygon fill="none" stroke="#29235c" points="213.02,-778.53 213.02,-838.53 627.02,-838.53 627.02,-778.53 213.02,-778.53"/>
<text text-anchor="start" x="223.78" y="-798.73" font-family="Helvetica,sans-Serif" font-size="32.00" fill="#29235c">password &#160;&#160;&#160;</text>
<text text-anchor="start" x="395.8" y="-799.73" font-family="Helvetica,sans-Serif" font-style="italic" font-size="32.00" fill="#29235c">varchar(128)</text>
<text text-anchor="start" x="577.15" y="-799.73" font-family="Helvetica,sans-Serif" font-size="32.00" fill="#29235c"> </text>
<text text-anchor="start" x="586.04" y="-799.73" font-family="Helvetica,sans-Serif" font-weight="bold" font-size="32.00" fill="#29235c">(!)</text>
<polygon fill="none" stroke="#29235c" stroke-width="2" points="212.02,-777.53 212.02,-1019.53 628.02,-1019.53 628.02,-777.53 212.02,-777.53"/>
</g>
<!-- problems -->
<g id="problems" class="node">
<title>problems</title>
<ellipse fill="none" stroke="black" stroke-width="0" cx="420.02" cy="-1516.53" rx="308.1" ry="427.19"/>
<polygon fill="#1d71b8" stroke="transparent" points="204.02,-1756.53 204.02,-1816.53 636.02,-1816.53 636.02,-1756.53 204.02,-1756.53"/>
<polygon fill="none" stroke="#29235c" points="204.02,-1756.53 204.02,-1816.53 636.02,-1816.53 636.02,-1756.53 204.02,-1756.53"/>
<text text-anchor="start" x="291.99" y="-1777.73" font-family="Helvetica,sans-Serif" font-weight="bold" font-size="32.00" fill="#ffffff"> &#160;&#160;&#160;&#160;&#160;&#160;problems &#160;&#160;&#160;&#160;&#160;&#160;</text>
<polygon fill="#e7e2dd" stroke="transparent" points="204.02,-1696.53 204.02,-1756.53 636.02,-1756.53 636.02,-1696.53 204.02,-1696.53"/>
<polygon fill="none" stroke="#29235c" points="204.02,-1696.53 204.02,-1756.53 636.02,-1756.53 636.02,-1696.53 204.02,-1696.53"/>
<text text-anchor="start" x="215.02" y="-1717.73" font-family="Helvetica,sans-Serif" font-weight="bold" font-size="32.00" fill="#29235c">id</text>
<text text-anchor="start" x="239.91" y="-1717.73" font-family="Helvetica,sans-Serif" font-size="32.00" fill="#29235c"> &#160;&#160;&#160;</text>
<text text-anchor="start" x="509.5" y="-1717.73" font-family="Helvetica,sans-Serif" font-style="italic" font-size="32.00" fill="#29235c">serial</text>
<text text-anchor="start" x="585.93" y="-1717.73" font-family="Helvetica,sans-Serif" font-size="32.00" fill="#29235c"> </text>
<text text-anchor="start" x="594.82" y="-1717.73" font-family="Helvetica,sans-Serif" font-weight="bold" font-size="32.00" fill="#29235c">(!)</text>
<polygon fill="#e7e2dd" stroke="transparent" points="204.02,-1636.53 204.02,-1696.53 636.02,-1696.53 636.02,-1636.53 204.02,-1636.53"/>
<polygon fill="none" stroke="#29235c" points="204.02,-1636.53 204.02,-1696.53 636.02,-1696.53 636.02,-1636.53 204.02,-1636.53"/>
<text text-anchor="start" x="215.02" y="-1656.73" font-family="Helvetica,sans-Serif" font-size="32.00" fill="#29235c">creator_id &#160;&#160;&#160;</text>
<text text-anchor="start" x="488.13" y="-1657.73" font-family="Helvetica,sans-Serif" font-style="italic" font-size="32.00" fill="#29235c">integer</text>
<text text-anchor="start" x="585.93" y="-1657.73" font-family="Helvetica,sans-Serif" font-size="32.00" fill="#29235c"> </text>
<text text-anchor="start" x="594.82" y="-1657.73" font-family="Helvetica,sans-Serif" font-weight="bold" font-size="32.00" fill="#29235c">(!)</text>
<polygon fill="#e7e2dd" stroke="transparent" points="204.02,-1576.53 204.02,-1636.53 636.02,-1636.53 636.02,-1576.53 204.02,-1576.53"/>
<polygon fill="none" stroke="#29235c" points="204.02,-1576.53 204.02,-1636.53 636.02,-1636.53 636.02,-1576.53 204.02,-1576.53"/>
<text text-anchor="start" x="215.02" y="-1596.73" font-family="Helvetica,sans-Serif" font-size="32.00" fill="#29235c">name &#160;&#160;&#160;</text>
<text text-anchor="start" x="404.59" y="-1597.73" font-family="Helvetica,sans-Serif" font-style="italic" font-size="32.00" fill="#29235c">varchar(128)</text>
<text text-anchor="start" x="585.93" y="-1597.73" font-family="Helvetica,sans-Serif" font-size="32.00" fill="#29235c"> </text>
<text text-anchor="start" x="594.82" y="-1597.73" font-family="Helvetica,sans-Serif" font-weight="bold" font-size="32.00" fill="#29235c">(!)</text>
<polygon fill="#e7e2dd" stroke="transparent" points="204.02,-1516.53 204.02,-1576.53 636.02,-1576.53 636.02,-1516.53 204.02,-1516.53"/>
<polygon fill="none" stroke="#29235c" points="204.02,-1516.53 204.02,-1576.53 636.02,-1576.53 636.02,-1516.53 204.02,-1516.53"/>
<text text-anchor="start" x="214.89" y="-1536.73" font-family="Helvetica,sans-Serif" font-size="32.00" fill="#29235c">description &#160;&#160;&#160;</text>
<text text-anchor="start" x="404.8" y="-1537.73" font-family="Helvetica,sans-Serif" font-style="italic" font-size="32.00" fill="#29235c">varchar(512)</text>
<text text-anchor="start" x="586.15" y="-1537.73" font-family="Helvetica,sans-Serif" font-size="32.00" fill="#29235c"> </text>
<text text-anchor="start" x="595.04" y="-1537.73" font-family="Helvetica,sans-Serif" font-weight="bold" font-size="32.00" fill="#29235c">(!)</text>
<polygon fill="#e7e2dd" stroke="transparent" points="204.02,-1456.53 204.02,-1516.53 636.02,-1516.53 636.02,-1456.53 204.02,-1456.53"/>
<polygon fill="none" stroke="#29235c" points="204.02,-1456.53 204.02,-1516.53 636.02,-1516.53 636.02,-1456.53 204.02,-1456.53"/>
<text text-anchor="start" x="215.02" y="-1476.73" font-family="Helvetica,sans-Serif" font-size="32.00" fill="#29235c">prompt &#160;&#160;&#160;</text>
<text text-anchor="start" x="534.36" y="-1477.73" font-family="Helvetica,sans-Serif" font-style="italic" font-size="32.00" fill="#29235c">text</text>
<text text-anchor="start" x="585.93" y="-1477.73" font-family="Helvetica,sans-Serif" font-size="32.00" fill="#29235c"> </text>
<text text-anchor="start" x="594.82" y="-1477.73" font-family="Helvetica,sans-Serif" font-weight="bold" font-size="32.00" fill="#29235c">(!)</text>
<polygon fill="#e7e2dd" stroke="transparent" points="204.02,-1396.53 204.02,-1456.53 636.02,-1456.53 636.02,-1396.53 204.02,-1396.53"/>
<polygon fill="none" stroke="#29235c" points="204.02,-1396.53 204.02,-1456.53 636.02,-1456.53 636.02,-1396.53 204.02,-1396.53"/>
<text text-anchor="start" x="215.02" y="-1416.73" font-family="Helvetica,sans-Serif" font-size="32.00" fill="#29235c">language_id &#160;&#160;&#160;</text>
<text text-anchor="start" x="488.13" y="-1417.73" font-family="Helvetica,sans-Serif" font-style="italic" font-size="32.00" fill="#29235c">integer</text>
<text text-anchor="start" x="585.93" y="-1417.73" font-family="Helvetica,sans-Serif" font-size="32.00" fill="#29235c"> </text>
<text text-anchor="start" x="594.82" y="-1417.73" font-family="Helvetica,sans-Serif" font-weight="bold" font-size="32.00" fill="#29235c">(!)</text>
<polygon fill="#e7e2dd" stroke="transparent" points="204.02,-1336.53 204.02,-1396.53 636.02,-1396.53 636.02,-1336.53 204.02,-1336.53"/>
<polygon fill="none" stroke="#29235c" points="204.02,-1336.53 204.02,-1396.53 636.02,-1396.53 636.02,-1336.53 204.02,-1336.53"/>
<text text-anchor="start" x="215.02" y="-1356.73" font-family="Helvetica,sans-Serif" font-size="32.00" fill="#29235c">tests &#160;&#160;&#160;</text>
<text text-anchor="start" x="527.25" y="-1357.73" font-family="Helvetica,sans-Serif" font-style="italic" font-size="32.00" fill="#29235c">json</text>
<text text-anchor="start" x="585.93" y="-1357.73" font-family="Helvetica,sans-Serif" font-size="32.00" fill="#29235c"> </text>
<text text-anchor="start" x="594.82" y="-1357.73" font-family="Helvetica,sans-Serif" font-weight="bold" font-size="32.00" fill="#29235c">(!)</text>
<polygon fill="#e7e2dd" stroke="transparent" points="204.02,-1276.53 204.02,-1336.53 636.02,-1336.53 636.02,-1276.53 204.02,-1276.53"/>
<polygon fill="none" stroke="#29235c" points="204.02,-1276.53 204.02,-1336.53 636.02,-1336.53 636.02,-1276.53 204.02,-1276.53"/>
<text text-anchor="start" x="215.02" y="-1296.73" font-family="Helvetica,sans-Serif" font-size="32.00" fill="#29235c">base_code &#160;&#160;&#160;</text>
<text text-anchor="start" x="534.36" y="-1297.73" font-family="Helvetica,sans-Serif" font-style="italic" font-size="32.00" fill="#29235c">text</text>
<text text-anchor="start" x="585.93" y="-1297.73" font-family="Helvetica,sans-Serif" font-size="32.00" fill="#29235c"> </text>
<text text-anchor="start" x="594.82" y="-1297.73" font-family="Helvetica,sans-Serif" font-weight="bold" font-size="32.00" fill="#29235c">(!)</text>
<polygon fill="#e7e2dd" stroke="transparent" points="204.02,-1216.53 204.02,-1276.53 636.02,-1276.53 636.02,-1216.53 204.02,-1216.53"/>
<polygon fill="none" stroke="#29235c" points="204.02,-1216.53 204.02,-1276.53 636.02,-1276.53 636.02,-1216.53 204.02,-1216.53"/>
<text text-anchor="start" x="215.02" y="-1236.73" font-family="Helvetica,sans-Serif" font-size="32.00" fill="#29235c">deactivated &#160;&#160;&#160;</text>
<text text-anchor="start" x="472.1" y="-1237.73" font-family="Helvetica,sans-Serif" font-style="italic" font-size="32.00" fill="#29235c">boolean</text>
<text text-anchor="start" x="585.93" y="-1237.73" font-family="Helvetica,sans-Serif" font-size="32.00" fill="#29235c"> </text>
<text text-anchor="start" x="594.82" y="-1237.73" font-family="Helvetica,sans-Serif" font-weight="bold" font-size="32.00" fill="#29235c">(!)</text>
<polygon fill="none" stroke="#29235c" stroke-width="2" points="203.02,-1215.53 203.02,-1817.53 637.02,-1817.53 637.02,-1215.53 203.02,-1215.53"/>
</g>
<!-- submissions -->
<g id="submissions" class="node">
<title>submissions</title>
<ellipse fill="none" stroke="black" stroke-width="0" cx="420.02" cy="-2261.53" rx="253.7" ry="299.63"/>
<polygon fill="#1d71b8" stroke="transparent" points="243.02,-2411.53 243.02,-2471.53 598.02,-2471.53 598.02,-2411.53 243.02,-2411.53"/>
<polygon fill="none" stroke="#29235c" points="243.02,-2411.53 243.02,-2471.53 598.02,-2471.53 598.02,-2411.53 243.02,-2411.53"/>
<text text-anchor="start" x="270.27" y="-2432.73" font-family="Helvetica,sans-Serif" font-weight="bold" font-size="32.00" fill="#ffffff"> &#160;&#160;&#160;&#160;&#160;&#160;submissions &#160;&#160;&#160;&#160;&#160;&#160;</text>
<polygon fill="#e7e2dd" stroke="transparent" points="243.02,-2351.53 243.02,-2411.53 598.02,-2411.53 598.02,-2351.53 243.02,-2351.53"/>
<polygon fill="none" stroke="#29235c" points="243.02,-2351.53 243.02,-2411.53 598.02,-2411.53 598.02,-2351.53 243.02,-2351.53"/>
<text text-anchor="start" x="254.02" y="-2372.73" font-family="Helvetica,sans-Serif" font-weight="bold" font-size="32.00" fill="#29235c">id</text>
<text text-anchor="start" x="278.91" y="-2372.73" font-family="Helvetica,sans-Serif" font-size="32.00" fill="#29235c"> &#160;&#160;&#160;</text>
<text text-anchor="start" x="471.5" y="-2372.73" font-family="Helvetica,sans-Serif" font-style="italic" font-size="32.00" fill="#29235c">serial</text>
<text text-anchor="start" x="547.93" y="-2372.73" font-family="Helvetica,sans-Serif" font-size="32.00" fill="#29235c"> </text>
<text text-anchor="start" x="556.82" y="-2372.73" font-family="Helvetica,sans-Serif" font-weight="bold" font-size="32.00" fill="#29235c">(!)</text>
<polygon fill="#e7e2dd" stroke="transparent" points="243.02,-2291.53 243.02,-2351.53 598.02,-2351.53 598.02,-2291.53 243.02,-2291.53"/>
<polygon fill="none" stroke="#29235c" points="243.02,-2291.53 243.02,-2351.53 598.02,-2351.53 598.02,-2291.53 243.02,-2291.53"/>
<text text-anchor="start" x="254.02" y="-2311.73" font-family="Helvetica,sans-Serif" font-size="32.00" fill="#29235c">problemId &#160;&#160;&#160;</text>
<text text-anchor="start" x="450.13" y="-2312.73" font-family="Helvetica,sans-Serif" font-style="italic" font-size="32.00" fill="#29235c">integer</text>
<text text-anchor="start" x="547.93" y="-2312.73" font-family="Helvetica,sans-Serif" font-size="32.00" fill="#29235c"> </text>
<text text-anchor="start" x="556.82" y="-2312.73" font-family="Helvetica,sans-Serif" font-weight="bold" font-size="32.00" fill="#29235c">(!)</text>
<polygon fill="#e7e2dd" stroke="transparent" points="243.02,-2231.53 243.02,-2291.53 598.02,-2291.53 598.02,-2231.53 243.02,-2231.53"/>
<polygon fill="none" stroke="#29235c" points="243.02,-2231.53 243.02,-2291.53 598.02,-2291.53 598.02,-2231.53 243.02,-2231.53"/>
<text text-anchor="start" x="254.02" y="-2251.73" font-family="Helvetica,sans-Serif" font-size="32.00" fill="#29235c">userId &#160;&#160;&#160;</text>
<text text-anchor="start" x="450.13" y="-2252.73" font-family="Helvetica,sans-Serif" font-style="italic" font-size="32.00" fill="#29235c">integer</text>
<text text-anchor="start" x="547.93" y="-2252.73" font-family="Helvetica,sans-Serif" font-size="32.00" fill="#29235c"> </text>
<text text-anchor="start" x="556.82" y="-2252.73" font-family="Helvetica,sans-Serif" font-weight="bold" font-size="32.00" fill="#29235c">(!)</text>
<polygon fill="#e7e2dd" stroke="transparent" points="243.02,-2171.53 243.02,-2231.53 598.02,-2231.53 598.02,-2171.53 243.02,-2171.53"/>
<polygon fill="none" stroke="#29235c" points="243.02,-2171.53 243.02,-2231.53 598.02,-2231.53 598.02,-2171.53 243.02,-2171.53"/>
<text text-anchor="start" x="254.02" y="-2191.73" font-family="Helvetica,sans-Serif" font-size="32.00" fill="#29235c">code &#160;&#160;&#160;</text>
<text text-anchor="start" x="496.36" y="-2192.73" font-family="Helvetica,sans-Serif" font-style="italic" font-size="32.00" fill="#29235c">text</text>
<text text-anchor="start" x="547.93" y="-2192.73" font-family="Helvetica,sans-Serif" font-size="32.00" fill="#29235c"> </text>
<text text-anchor="start" x="556.82" y="-2192.73" font-family="Helvetica,sans-Serif" font-weight="bold" font-size="32.00" fill="#29235c">(!)</text>
<polygon fill="#e7e2dd" stroke="transparent" points="243.02,-2111.53 243.02,-2171.53 598.02,-2171.53 598.02,-2111.53 243.02,-2111.53"/>
<polygon fill="none" stroke="#29235c" points="243.02,-2111.53 243.02,-2171.53 598.02,-2171.53 598.02,-2111.53 243.02,-2111.53"/>
<text text-anchor="start" x="253.65" y="-2131.73" font-family="Helvetica,sans-Serif" font-size="32.00" fill="#29235c">created_at &#160;&#160;&#160;</text>
<text text-anchor="start" x="439.74" y="-2132.73" font-family="Helvetica,sans-Serif" font-style="italic" font-size="32.00" fill="#29235c">timestamp</text>
<polygon fill="#e7e2dd" stroke="transparent" points="243.02,-2051.53 243.02,-2111.53 598.02,-2111.53 598.02,-2051.53 243.02,-2051.53"/>
<polygon fill="none" stroke="#29235c" points="243.02,-2051.53 243.02,-2111.53 598.02,-2111.53 598.02,-2051.53 243.02,-2051.53"/>
<text text-anchor="start" x="254.02" y="-2071.73" font-family="Helvetica,sans-Serif" font-size="32.00" fill="#29235c">is_commit &#160;&#160;&#160;</text>
<text text-anchor="start" x="434.1" y="-2072.73" font-family="Helvetica,sans-Serif" font-style="italic" font-size="32.00" fill="#29235c">boolean</text>
<text text-anchor="start" x="547.93" y="-2072.73" font-family="Helvetica,sans-Serif" font-size="32.00" fill="#29235c"> </text>
<text text-anchor="start" x="556.82" y="-2072.73" font-family="Helvetica,sans-Serif" font-weight="bold" font-size="32.00" fill="#29235c">(!)</text>
<polygon fill="none" stroke="#29235c" stroke-width="2" points="241.52,-2050.53 241.52,-2472.53 598.52,-2472.53 598.52,-2050.53 241.52,-2050.53"/>
</g>
<!-- tests -->
<g id="tests" class="node">
<title>tests</title>
<ellipse fill="none" stroke="black" stroke-width="0" cx="420.02" cy="-2709.53" rx="282.69" ry="130.22"/>
<polygon fill="#1d71b8" stroke="transparent" points="222.02,-2739.53 222.02,-2799.53 618.02,-2799.53 618.02,-2739.53 222.02,-2739.53"/>
<polygon fill="none" stroke="#29235c" points="222.02,-2739.53 222.02,-2799.53 618.02,-2799.53 618.02,-2739.53 222.02,-2739.53"/>
<text text-anchor="start" x="323.98" y="-2760.73" font-family="Helvetica,sans-Serif" font-weight="bold" font-size="32.00" fill="#ffffff"> &#160;&#160;&#160;&#160;&#160;&#160;tests &#160;&#160;&#160;&#160;&#160;&#160;</text>
<polygon fill="#e7e2dd" stroke="transparent" points="222.02,-2679.53 222.02,-2739.53 618.02,-2739.53 618.02,-2679.53 222.02,-2679.53"/>
<polygon fill="none" stroke="#29235c" points="222.02,-2679.53 222.02,-2739.53 618.02,-2739.53 618.02,-2679.53 222.02,-2679.53"/>
<text text-anchor="start" x="233.02" y="-2700.73" font-family="Helvetica,sans-Serif" font-weight="bold" font-size="32.00" fill="#29235c">token</text>
<text text-anchor="start" x="311.28" y="-2700.73" font-family="Helvetica,sans-Serif" font-size="32.00" fill="#29235c"> &#160;&#160;&#160;</text>
<text text-anchor="start" x="404.38" y="-2700.73" font-family="Helvetica,sans-Serif" font-style="italic" font-size="32.00" fill="#29235c">varchar(40)</text>
<text text-anchor="start" x="567.93" y="-2700.73" font-family="Helvetica,sans-Serif" font-size="32.00" fill="#29235c"> </text>
<text text-anchor="start" x="576.82" y="-2700.73" font-family="Helvetica,sans-Serif" font-weight="bold" font-size="32.00" fill="#29235c">(!)</text>
<polygon fill="#e7e2dd" stroke="transparent" points="222.02,-2619.53 222.02,-2679.53 618.02,-2679.53 618.02,-2619.53 222.02,-2619.53"/>
<polygon fill="none" stroke="#29235c" points="222.02,-2619.53 222.02,-2679.53 618.02,-2679.53 618.02,-2619.53 222.02,-2619.53"/>
<text text-anchor="start" x="232.89" y="-2639.73" font-family="Helvetica,sans-Serif" font-size="32.00" fill="#29235c">submission_id &#160;&#160;&#160;</text>
<text text-anchor="start" x="470.58" y="-2640.73" font-family="Helvetica,sans-Serif" font-style="italic" font-size="32.00" fill="#29235c">integer</text>
<text text-anchor="start" x="568.38" y="-2640.73" font-family="Helvetica,sans-Serif" font-size="32.00" fill="#29235c"> </text>
<text text-anchor="start" x="577.27" y="-2640.73" font-family="Helvetica,sans-Serif" font-weight="bold" font-size="32.00" fill="#29235c">(!)</text>
<polygon fill="none" stroke="#29235c" stroke-width="2" points="221.02,-2618.53 221.02,-2800.53 619.02,-2800.53 619.02,-2618.53 221.02,-2618.53"/>
</g>
<!-- admins -->
<g id="admins" class="node">
<title>admins</title>
<ellipse fill="none" stroke="black" stroke-width="0" cx="420.02" cy="-2945.53" rx="178.8" ry="87.86"/>
<polygon fill="#1d71b8" stroke="transparent" points="296.02,-2945.53 296.02,-3005.53 545.02,-3005.53 545.02,-2945.53 296.02,-2945.53"/>
<polygon fill="none" stroke="#29235c" points="296.02,-2945.53 296.02,-3005.53 545.02,-3005.53 545.02,-2945.53 296.02,-2945.53"/>
<text text-anchor="start" x="306.71" y="-2966.73" font-family="Helvetica,sans-Serif" font-weight="bold" font-size="32.00" fill="#ffffff"> &#160;&#160;&#160;&#160;&#160;&#160;admins &#160;&#160;&#160;&#160;&#160;&#160;</text>
<polygon fill="#e7e2dd" stroke="transparent" points="296.02,-2885.53 296.02,-2945.53 545.02,-2945.53 545.02,-2885.53 296.02,-2885.53"/>
<polygon fill="none" stroke="#29235c" points="296.02,-2885.53 296.02,-2945.53 545.02,-2945.53 545.02,-2885.53 296.02,-2885.53"/>
<text text-anchor="start" x="307.02" y="-2906.73" font-family="Helvetica,sans-Serif" font-weight="bold" font-size="32.00" fill="#29235c">id</text>
<text text-anchor="start" x="331.91" y="-2906.73" font-family="Helvetica,sans-Serif" font-size="32.00" fill="#29235c"> &#160;&#160;&#160;</text>
<text text-anchor="start" x="397.13" y="-2906.73" font-family="Helvetica,sans-Serif" font-style="italic" font-size="32.00" fill="#29235c">integer</text>
<text text-anchor="start" x="494.93" y="-2906.73" font-family="Helvetica,sans-Serif" font-size="32.00" fill="#29235c"> </text>
<text text-anchor="start" x="503.82" y="-2906.73" font-family="Helvetica,sans-Serif" font-weight="bold" font-size="32.00" fill="#29235c">(!)</text>
<polygon fill="none" stroke="#29235c" stroke-width="2" points="294.52,-2884.53 294.52,-3006.53 545.52,-3006.53 545.52,-2884.53 294.52,-2884.53"/>
</g>
</g>
</svg>
